<svg width="67" height="83" viewBox="0 0 67 83" fill="none" xmlns="http://www.w3.org/2000/svg">
<path d="M61.378 56.7102C58.5593 53.3338 59.2427 48.7422 59.9127 46.2622C60.5438 44.7144 60.8989 43.067 60.8989 41.3446C60.8989 38.2683 59.8062 35.4091 57.9416 33.0121C56.1259 44.1985 44.9355 52.8604 31.3298 53.0735C34.4554 55.2528 38.464 56.5662 42.8364 56.5662C46.033 56.5662 49.0252 55.8603 51.6261 54.6339C55.6187 57.2886 60.5901 57.6531 60.5901 57.6531C62.7394 57.6518 61.378 56.7102 61.378 56.7102Z" fill="#F6F6F6"/>
<path d="M55.8954 29.8289C55.8954 18.2746 44.6467 8.8717 30.8233 8.8717C16.9978 8.8717 5.75054 18.2746 5.75054 29.8289C5.75054 32.0865 6.20145 34.3467 7.09255 36.5393C8.12703 40.3161 9.15079 47.0969 5.21655 52.3411C6.55253 52.199 12.5557 51.3989 17.4072 48.1772L17.9586 47.812L18.5576 48.0929C22.2949 49.8531 26.536 50.7867 30.8233 50.7867C44.6467 50.7867 55.8954 41.3831 55.8954 29.8289Z" fill="white"/>
</svg>
