<svg width="20" height="20" viewBox="0 0 20 20" fill="none" xmlns="http://www.w3.org/2000/svg">
<path fill-rule="evenodd" clip-rule="evenodd" d="M3.26279 2.70175C3.03025 2.70175 2.84174 2.89026 2.84174 3.1228V7.33334C2.84174 7.56588 3.03025 7.75439 3.26279 7.75439H7.19257C7.42512 7.75439 7.61363 7.56588 7.61363 7.33334V3.1228C7.61363 2.89026 7.42512 2.70175 7.19257 2.70175H3.26279ZM1.43823 3.1228C1.43823 2.11513 2.25511 1.29825 3.26279 1.29825H7.19257C8.20025 1.29825 9.01713 2.11513 9.01713 3.1228V7.33334C9.01713 8.34101 8.20025 9.15789 7.19257 9.15789H3.26279C2.25511 9.15789 1.43823 8.34101 1.43823 7.33334V3.1228ZM12.8062 2.70175C12.5737 2.70175 12.3852 2.89026 12.3852 3.1228V7.33334C12.3852 7.56588 12.5737 7.75439 12.8062 7.75439H16.736C16.9686 7.75439 17.1571 7.56588 17.1571 7.33334V3.1228C17.1571 2.89026 16.9686 2.70175 16.736 2.70175H12.8062ZM10.9817 3.1228C10.9817 2.11513 11.7986 1.29825 12.8062 1.29825H16.736C17.7437 1.29825 18.5606 2.11513 18.5606 3.1228V7.33334C18.5606 8.34101 17.7437 9.15789 16.736 9.15789H12.8062C11.7986 9.15789 10.9817 8.34101 10.9817 7.33334V3.1228ZM3.26279 12.2456C3.03025 12.2456 2.84174 12.4341 2.84174 12.6666V16.8772C2.84174 17.1097 3.03025 17.2982 3.26279 17.2982H7.19257C7.42512 17.2982 7.61363 17.1097 7.61363 16.8772V12.6666C7.61363 12.4341 7.42512 12.2456 7.19257 12.2456H3.26279ZM1.43823 12.6666C1.43823 11.659 2.25511 10.8421 3.26279 10.8421H7.19257C8.20025 10.8421 9.01713 11.6589 9.01713 12.6666V16.8772C9.01713 17.8848 8.20025 18.7017 7.19257 18.7017H3.26279C2.25511 18.7017 1.43823 17.8848 1.43823 16.8772V12.6666ZM12.8062 12.2456C12.5737 12.2456 12.3852 12.4341 12.3852 12.6666V16.8772C12.3852 17.1097 12.5737 17.2982 12.8062 17.2982H16.736C16.9686 17.2982 17.1571 17.1097 17.1571 16.8772V12.6666C17.1571 12.4341 16.9686 12.2456 16.736 12.2456H12.8062ZM10.9817 12.6666C10.9817 11.659 11.7986 10.8421 12.8062 10.8421H16.736C17.7437 10.8421 18.5606 11.659 18.5606 12.6666V16.8772C18.5606 17.8848 17.7437 18.7017 16.736 18.7017H12.8062C11.7986 18.7017 10.9817 17.8848 10.9817 16.8772V12.6666Z" fill="black"/>
</svg>
