<svg width="66" height="66" viewBox="0 0 66 66" fill="none" xmlns="http://www.w3.org/2000/svg">
<g filter="url(#filter0_d_4_2957)">
<rect x="8" y="4" width="50" height="50" rx="25" fill="#FFB534"/>
<path fill-rule="evenodd" clip-rule="evenodd" d="M38.7344 23.2441C38.5741 23.0838 38.3566 22.9938 38.1299 22.9938C37.9032 22.9938 37.6858 23.0838 37.5254 23.2441L37.1133 23.6562L38.3437 24.8874L38.7558 24.4744C38.9161 24.3141 39.0061 24.0967 39.0061 23.87C39.0061 23.6432 38.9161 23.4258 38.7558 23.2655L38.7344 23.2441ZM37.4374 25.7937L36.2062 24.5625L31.873 28.8965L31.5045 30.4962L33.1034 30.1277L37.4374 25.7937ZM36.6191 22.3369C36.8176 22.1384 37.0533 21.9809 37.3127 21.8734C37.572 21.766 37.85 21.7107 38.1308 21.7107C38.4115 21.7107 38.6895 21.766 38.9489 21.8734C39.2083 21.9809 39.4439 22.1384 39.6424 22.3369L39.6638 22.3583C39.8623 22.5568 40.0198 22.7925 40.1273 23.0518C40.2347 23.3112 40.29 23.5892 40.29 23.87C40.29 24.1507 40.2347 24.4287 40.1273 24.6881C40.0198 24.9474 39.8623 25.1831 39.6638 25.3816L33.8806 31.1631C33.7957 31.2479 33.6888 31.3071 33.5719 31.3341L30.7932 31.9754C30.6872 31.9999 30.5767 31.9971 30.4722 31.9671C30.3676 31.9372 30.2723 31.8812 30.1954 31.8043C30.1184 31.7274 30.0623 31.6323 30.0322 31.5277C30.0022 31.4232 29.9993 31.3127 30.0237 31.2067L30.6649 28.428C30.6919 28.3111 30.7512 28.2042 30.8359 28.1193L36.6191 22.3369ZM28.9387 23.87C28.4285 23.87 27.9391 24.0726 27.5784 24.4334C27.2176 24.7942 27.0149 25.2835 27.0149 25.7937V33.0612C27.0149 33.5714 27.2176 34.0607 27.5784 34.4215C27.9391 34.7823 28.4285 34.985 28.9387 34.985H36.2062C36.7164 34.985 37.2057 34.7823 37.5665 34.4215C37.9272 34.0607 38.1299 33.5714 38.1299 33.0612V29.2137C38.1299 29.0436 38.1975 28.8805 38.3177 28.7603C38.438 28.64 38.6011 28.5725 38.7712 28.5725C38.9412 28.5725 39.1043 28.64 39.2246 28.7603C39.3449 28.8805 39.4124 29.0436 39.4124 29.2137V33.0612C39.4124 33.4823 39.3295 33.8992 39.1684 34.2882C39.0072 34.6772 38.7711 35.0306 38.4733 35.3284C38.1756 35.6261 37.8222 35.8623 37.4331 36.0234C37.0441 36.1845 36.6272 36.2675 36.2062 36.2675H28.9387C28.5176 36.2675 28.1007 36.1845 27.7117 36.0234C27.3227 35.8623 26.9692 35.6261 26.6715 35.3284C26.3738 35.0306 26.1376 34.6772 25.9765 34.2882C25.8154 33.8992 25.7324 33.4823 25.7324 33.0612V25.7937C25.7324 24.9434 26.0702 24.1278 26.6715 23.5265C27.2728 22.9253 28.0883 22.5875 28.9387 22.5875H32.7862C32.9562 22.5875 33.1193 22.655 33.2396 22.7753C33.3599 22.8955 33.4274 23.0586 33.4274 23.2287C33.4274 23.3988 33.3599 23.5619 33.2396 23.6821C33.1193 23.8024 32.9562 23.87 32.7862 23.87H28.9387Z" fill="white"/>
</g>
<defs>
<filter id="filter0_d_4_2957" x="0.4" y="0.2" width="65.2" height="65.2" filterUnits="userSpaceOnUse" color-interpolation-filters="sRGB">
<feFlood flood-opacity="0" result="BackgroundImageFix"/>
<feColorMatrix in="SourceAlpha" type="matrix" values="0 0 0 0 0 0 0 0 0 0 0 0 0 0 0 0 0 0 127 0" result="hardAlpha"/>
<feOffset dy="3.8"/>
<feGaussianBlur stdDeviation="3.8"/>
<feComposite in2="hardAlpha" operator="out"/>
<feColorMatrix type="matrix" values="0 0 0 0 0 0 0 0 0 0 0 0 0 0 0 0 0 0 0.2 0"/>
<feBlend mode="normal" in2="BackgroundImageFix" result="effect1_dropShadow_4_2957"/>
<feBlend mode="normal" in="SourceGraphic" in2="effect1_dropShadow_4_2957" result="shape"/>
</filter>
</defs>
</svg>
