<svg width="23" height="20" viewBox="0 0 23 20" fill="none" xmlns="http://www.w3.org/2000/svg">
<g clip-path="url(#clip0_4_3471)">
<path fill-rule="evenodd" clip-rule="evenodd" d="M6.14003 10C6.14003 10.4641 5.9342 10.9092 5.56781 11.2374C5.20142 11.5656 4.7045 11.75 4.18635 11.75C3.6682 11.75 3.17127 11.5656 2.80489 11.2374C2.4385 10.9092 2.23267 10.4641 2.23267 10C2.23267 9.53587 2.4385 9.09075 2.80489 8.76256C3.17127 8.43437 3.6682 8.25 4.18635 8.25C4.7045 8.25 5.20142 8.43437 5.56781 8.76256C5.9342 9.09075 6.14003 9.53587 6.14003 10ZM13.1175 10C13.1175 10.2298 13.0669 10.4574 12.9687 10.6697C12.8706 10.882 12.7267 11.0749 12.5452 11.2374C12.3638 11.3999 12.1485 11.5288 11.9114 11.6168C11.6744 11.7047 11.4203 11.75 11.1638 11.75C10.9072 11.75 10.6532 11.7047 10.4161 11.6168C10.1791 11.5288 9.96374 11.3999 9.78232 11.2374C9.6009 11.0749 9.457 10.882 9.35882 10.6697C9.26063 10.4574 9.2101 10.2298 9.2101 10C9.2101 9.53587 9.41593 9.09075 9.78232 8.76256C10.1487 8.43437 10.6456 8.25 11.1638 8.25C11.6819 8.25 12.1789 8.43437 12.5452 8.76256C12.9116 9.09075 13.1175 9.53587 13.1175 10ZM18.1412 11.75C18.3978 11.75 18.6518 11.7047 18.8889 11.6168C19.1259 11.5288 19.3413 11.3999 19.5227 11.2374C19.7041 11.0749 19.848 10.882 19.9462 10.6697C20.0444 10.4574 20.0949 10.2298 20.0949 10C20.0949 9.77019 20.0444 9.54262 19.9462 9.3303C19.848 9.11798 19.7041 8.92507 19.5227 8.76256C19.3413 8.60006 19.1259 8.47116 18.8889 8.38321C18.6518 8.29527 18.3978 8.25 18.1412 8.25C17.6231 8.25 17.1261 8.43437 16.7598 8.76256C16.3934 9.09075 16.1875 9.53587 16.1875 10C16.1875 10.4641 16.3934 10.9092 16.7598 11.2374C17.1261 11.5656 17.6231 11.75 18.1412 11.75Z" fill="white"/>
</g>
<defs>
<clipPath id="clip0_4_3471">
<rect width="20" height="22.3278" fill="white" transform="matrix(0 -1 1 0 0 20)"/>
</clipPath>
</defs>
</svg>
