<svg width="23" height="20" viewBox="0 0 23 20" fill="none" xmlns="http://www.w3.org/2000/svg">
<path fill-rule="evenodd" clip-rule="evenodd" d="M12.0012 3.25C12.0012 3.05109 11.913 2.86032 11.756 2.71967C11.599 2.57902 11.386 2.5 11.1639 2.5C10.9419 2.5 10.7289 2.57902 10.5719 2.71967C10.4149 2.86032 10.3266 3.05109 10.3266 3.25V9.25H3.62942C3.40736 9.25 3.19328 9.32902 3.03625 9.46967C2.87923 9.61032 2.79102 9.80109 2.79102 10C2.79102 10.1989 2.87923 10.3897 3.03625 10.5303C3.19328 10.671 3.40624 10.75 3.62831 10.75H10.3266V16.75C10.3266 16.9489 10.4149 17.1397 10.5719 17.2803C10.7289 17.421 10.9419 17.5 11.1639 17.5C11.386 17.5 11.599 17.421 11.756 17.2803C11.913 17.1397 12.0012 16.9489 12.0012 16.75V10.75H18.6996C18.9216 10.75 19.1346 10.671 19.2916 10.5303C19.4486 10.3897 19.5369 10.1989 19.5369 10C19.5369 9.80109 19.4486 9.61032 19.2916 9.46967C19.1346 9.32902 18.9216 9.25 18.6996 9.25H12.0012V3.25Z" fill="#606060"/>
</svg>
