<svg width="323" height="44" viewBox="0 0 323 44" fill="none" xmlns="http://www.w3.org/2000/svg">
<rect width="323" height="44" rx="6" fill="#FEE500"/>
<g clip-path="url(#clip0_225_25267)">
<path opacity="0.902" fill-rule="evenodd" clip-rule="evenodd" d="M91 13.944C86.29 13.944 82 17.73 82 20.933C82 23.333 83.558 25.45 85.931 26.708L84.933 30.374C84.844 30.699 85.213 30.957 85.496 30.77L89.873 27.865C90.242 27.901 90.618 27.922 91 27.922C95.97 27.922 100 24.793 100 20.933C100 17.73 95.97 13.944 91 13.944Z" fill="black"/>
</g>
<path d="M113.46 16.028H115.28C115.28 20.032 114.328 23.364 109.498 25.814L108.504 24.4C112.536 22.37 113.46 19.892 113.46 16.252V16.028ZM109.302 16.028H114.566V17.498H109.302V16.028ZM113.502 19.206V20.634L108.854 21.082L108.63 19.486L113.502 19.206ZM116.848 14.768H118.724V27.732H116.848V14.768ZM118.234 19.724H120.516V21.25H118.234V19.724ZM126.339 16.028H128.159C128.159 20.032 127.207 23.364 122.377 25.814L121.383 24.4C125.415 22.37 126.339 19.892 126.339 16.252V16.028ZM122.181 16.028H127.445V17.498H122.181V16.028ZM126.381 19.206V20.634L121.733 21.082L121.509 19.486L126.381 19.206ZM129.727 14.768H131.603V27.732H129.727V14.768ZM131.113 19.724H133.395V21.25H131.113V19.724ZM139.246 22.076H141.108V25.03H139.246V22.076ZM140.184 15.44C142.956 15.44 145.028 16.854 145.028 19.01C145.028 21.194 142.956 22.594 140.184 22.594C137.412 22.594 135.34 21.194 135.34 19.01C135.34 16.854 137.412 15.44 140.184 15.44ZM140.184 16.91C138.406 16.91 137.174 17.694 137.174 19.01C137.174 20.354 138.406 21.124 140.184 21.124C141.962 21.124 143.194 20.354 143.194 19.01C143.194 17.694 141.962 16.91 140.184 16.91ZM134.332 24.736H146.064V26.248H134.332V24.736ZM147.183 21.656H158.915V23.126H147.183V21.656ZM152.111 20.13H153.973V22.048H152.111V20.13ZM148.499 23.896H157.487V27.746H155.625V25.366H148.499V23.896ZM148.639 19.318H157.669V20.732H148.639V19.318ZM148.639 15.076H157.571V16.49H150.487V20.032H148.639V15.076ZM149.969 17.204H157.277V18.562H149.969V17.204ZM165.942 15.426C168.672 15.426 170.786 16.924 170.786 19.178C170.786 21.446 168.672 22.93 165.942 22.93C163.212 22.93 161.098 21.446 161.098 19.178C161.098 16.924 163.212 15.426 165.942 15.426ZM165.942 16.938C164.178 16.938 162.918 17.778 162.918 19.178C162.918 20.564 164.178 21.404 165.942 21.404C167.706 21.404 168.966 20.564 168.966 19.178C168.966 17.778 167.706 16.938 165.942 16.938ZM160.09 24.666H171.822V26.192H160.09V24.666ZM172.969 24.806H184.701V26.318H172.969V24.806ZM177.883 22.356H179.745V25.422H177.883V22.356ZM174.285 15.622H183.385V19.934H176.161V22.118H174.313V18.478H181.537V17.092H174.285V15.622ZM174.313 21.376H183.679V22.874H174.313V21.376ZM194.646 18.198H197.278V19.682H194.646V18.198ZM194.576 21.432H197.222V22.916H194.576V21.432ZM199.042 14.782H200.82V27.746H199.042V14.782ZM196.368 15.062H198.104V27.172H196.368V15.062ZM193.442 16.308H195.234C195.234 19.99 194.128 22.93 190.516 25.058L189.466 23.756C192.392 21.978 193.442 19.822 193.442 16.686V16.308ZM190.208 16.308H194.072V17.792H190.208V16.308ZM202.527 21.068H214.259V22.552H202.527V21.068ZM207.441 19.388H209.289V21.712H207.441V19.388ZM207.413 15.006H209.009V15.398C209.009 17.792 207.105 19.668 203.801 20.144L203.115 18.688C206.027 18.338 207.413 16.854 207.413 15.398V15.006ZM207.721 15.006H209.317V15.398C209.317 16.91 210.675 18.338 213.615 18.688L212.929 20.144C209.625 19.654 207.721 17.848 207.721 15.398V15.006ZM203.829 23.462H212.831V27.746H210.969V24.918H203.829V23.462ZM223.722 14.782H225.57V27.746H223.722V14.782ZM225.15 19.836H227.446V21.39H225.15V19.836ZM215.35 16.7H222.896V18.184H215.35V16.7ZM219.144 18.912C221.034 18.912 222.434 20.2 222.434 22.006C222.434 23.812 221.034 25.1 219.144 25.1C217.254 25.1 215.854 23.812 215.854 22.006C215.854 20.2 217.254 18.912 219.144 18.912ZM219.144 20.424C218.262 20.424 217.632 21.012 217.632 22.006C217.632 23 218.262 23.588 219.144 23.588C220.026 23.588 220.656 23 220.656 22.006C220.656 21.012 220.026 20.424 219.144 20.424ZM218.206 14.992H220.068V17.26H218.206V14.992ZM237.217 14.782H239.093V27.746H237.217V14.782ZM233.395 16.126H235.243C235.243 20.088 233.899 23.336 229.293 25.562L228.327 24.078C232.051 22.286 233.395 19.934 233.395 16.462V16.126ZM229.013 16.126H234.277V17.596H229.013V16.126Z" fill="black"/>
<defs>
<clipPath id="clip0_225_25267">
<rect width="18" height="18" fill="white" transform="translate(82 13)"/>
</clipPath>
</defs>
</svg>
