<svg width="18" height="16" viewBox="0 0 18 16" fill="none" xmlns="http://www.w3.org/2000/svg">
<path d="M1.45946 6.36855C0.651892 6.36855 0 7.07971 0 7.96069C0 8.84167 0.651892 9.55283 1.45946 9.55283C2.26703 9.55283 2.91892 8.84167 2.91892 7.96069C2.91892 7.07971 2.26703 6.36855 1.45946 6.36855ZM1.45946 0C0.651892 0 0 0.711155 0 1.59214C0 2.47312 0.651892 3.18428 1.45946 3.18428C2.26703 3.18428 2.91892 2.47312 2.91892 1.59214C2.91892 0.711155 2.26703 0 1.45946 0ZM1.45946 12.7371C0.651892 12.7371 0 13.4589 0 14.3292C0 15.1996 0.661622 15.9214 1.45946 15.9214C2.2573 15.9214 2.91892 15.1996 2.91892 14.3292C2.91892 13.4589 2.26703 12.7371 1.45946 12.7371ZM4.37838 15.3907H18V13.2678H4.37838V15.3907ZM4.37838 9.02211H18V6.89926H4.37838V9.02211ZM4.37838 0.530713V2.65356H18V0.530713H4.37838Z" fill="black"/>
</svg>
