<svg width="24" height="20" viewBox="0 0 24 20" fill="none" xmlns="http://www.w3.org/2000/svg">
<path d="M1.94595 7.78378C0.869189 7.78378 0 8.65297 0 9.72973C0 10.8065 0.869189 11.6757 1.94595 11.6757C3.0227 11.6757 3.89189 10.8065 3.89189 9.72973C3.89189 8.65297 3.0227 7.78378 1.94595 7.78378ZM1.94595 0C0.869189 0 0 0.869189 0 1.94595C0 3.0227 0.869189 3.89189 1.94595 3.89189C3.0227 3.89189 3.89189 3.0227 3.89189 1.94595C3.89189 0.869189 3.0227 0 1.94595 0ZM1.94595 15.5676C0.869189 15.5676 0 16.4497 0 17.5135C0 18.5773 0.882162 19.4595 1.94595 19.4595C3.00973 19.4595 3.89189 18.5773 3.89189 17.5135C3.89189 16.4497 3.0227 15.5676 1.94595 15.5676ZM5.83784 18.8108H24V16.2162H5.83784V18.8108ZM5.83784 11.027H24V8.43243H5.83784V11.027ZM5.83784 0.648649V3.24324H24V0.648649H5.83784Z" fill="black"/>
</svg>
