<svg width="20" height="20" viewBox="0 0 20 20" fill="none" xmlns="http://www.w3.org/2000/svg">
<path fill-rule="evenodd" clip-rule="evenodd" d="M4.24991 2.5C3.52056 2.5 2.82109 2.78973 2.30537 3.30546C1.78964 3.82118 1.49991 4.52065 1.49991 5.25V9.25C1.49991 9.44891 1.57893 9.63968 1.71958 9.78033C1.86023 9.92098 2.051 10 2.24991 10C2.44882 10 2.63959 9.92098 2.78024 9.78033C2.92089 9.63968 2.99991 9.44891 2.99991 9.25V5.25C2.99991 4.56 3.55991 4 4.24991 4H15.7499C16.4399 4 16.9999 4.56 16.9999 5.25V14.75C16.9999 15.44 16.4399 16 15.7499 16H7.74991C7.551 16 7.36023 16.079 7.21958 16.2197C7.07893 16.3603 6.99991 16.5511 6.99991 16.75C6.99991 16.9489 7.07893 17.1397 7.21958 17.2803C7.36023 17.421 7.551 17.5 7.74991 17.5H15.7499C16.4793 17.5 17.1787 17.2103 17.6945 16.6945C18.2102 16.1788 18.4999 15.4793 18.4999 14.75V5.25C18.4999 4.52065 18.2102 3.82118 17.6945 3.30546C17.1787 2.78973 16.4793 2.5 15.7499 2.5H4.24991ZM5.76591 6.206C5.69501 6.13552 5.61073 6.07993 5.51804 6.0425C5.42535 6.00506 5.3261 5.98653 5.22615 5.988C5.12619 5.98947 5.02753 6.01091 4.93598 6.05106C4.84443 6.09121 4.76182 6.14925 4.69303 6.22178C4.62423 6.29431 4.57063 6.37986 4.53537 6.47341C4.50011 6.56695 4.48391 6.6666 4.48772 6.7665C4.49153 6.86639 4.51527 6.96452 4.55755 7.05511C4.59983 7.1457 4.65979 7.22692 4.73391 7.294L9.48391 11.794C9.62324 11.9261 9.80792 11.9997 9.99991 11.9997C10.1919 11.9997 10.3766 11.9261 10.5159 11.794L15.2659 7.294C15.4048 7.15591 15.4842 6.96896 15.4871 6.77311C15.49 6.57726 15.4161 6.38805 15.2813 6.24594C15.1465 6.10382 14.9615 6.02009 14.7658 6.01262C14.57 6.00516 14.3791 6.07456 14.2339 6.206L9.99991 10.216L5.76591 6.206ZM4.99991 13.56L6.21991 14.78C6.36142 14.9166 6.55091 14.9921 6.74756 14.9903C6.94421 14.9885 7.13228 14.9095 7.27127 14.7704C7.41026 14.6312 7.48905 14.4431 7.49067 14.2465C7.49228 14.0498 7.4166 13.8604 7.27991 13.719L4.77991 11.219C4.63928 11.0785 4.44866 10.9997 4.24991 10.9997C4.05116 10.9997 3.86053 11.0785 3.71991 11.219L1.21991 13.719C1.14622 13.7877 1.08712 13.8705 1.04613 13.9625C1.00514 14.0545 0.983095 14.1538 0.981318 14.2545C0.979541 14.3552 0.998066 14.4552 1.03579 14.5486C1.07351 14.642 1.12965 14.7268 1.20087 14.798C1.27209 14.8693 1.35692 14.9254 1.45031 14.9631C1.5437 15.0008 1.64373 15.0194 1.74443 15.0176C1.84513 15.0158 1.94445 14.9938 2.03645 14.9528C2.12845 14.9118 2.21125 14.8527 2.27991 14.779L3.49991 13.559V16.749C3.49991 16.9479 3.57893 17.1387 3.71958 17.2793C3.86023 17.42 4.051 17.499 4.24991 17.499C4.44882 17.499 4.63959 17.42 4.78024 17.2793C4.92089 17.1387 4.99991 16.9479 4.99991 16.749V13.559V13.56Z" fill="white"/>
</svg>
