<svg width="50" height="50" viewBox="0 0 50 50" fill="none" xmlns="http://www.w3.org/2000/svg">
<g clip-path="url(#clip0_4_32)">
<rect width="50" height="49.9995" rx="12" fill="white"/>
<path d="M0.0019531 26.3927C1.05459 26.3976 2.07404 26.4532 3.09641 26.5919C3.67936 28.4409 4.84284 29.7576 6.68545 30.3899C8.52073 31.0197 10.2349 30.6902 11.8388 29.5697C14.9377 31.3815 17.5116 33.7724 19.5403 36.7473C22.2734 40.7552 23.5927 45.3324 23.6078 49.9795C23.5487 49.9854 23.4872 49.9976 23.4257 49.9976C18.3729 49.9981 13.3201 50.0034 8.26734 49.9956C5.01763 49.9907 2.18975 48.0622 0.850511 45.3324C0.56001 44.7397 0.350555 44.1187 0.198225 43.4762C0.0576123 42.8825 0.00341782 42.281 0.00292958 41.6736C0.000976627 36.6452 0.0019531 31.6169 0.0019531 26.5885C0.0019531 26.5318 0.0019531 26.4757 0.0019531 26.3932V26.3927Z" fill="#E01E59"/>
<path d="M26.4014 49.9976C26.3131 41.8791 30.7843 33.7817 38.1719 29.578C38.3296 29.679 38.4912 29.786 38.6562 29.8875C39.4101 30.3513 40.2293 30.6062 41.1125 30.6716C42.5841 30.78 43.8926 30.3616 45.0321 29.4403C45.8992 28.7392 46.5066 27.8472 46.8298 26.773C46.8694 26.6422 46.926 26.5709 47.0778 26.5621C48.0099 26.5074 48.9414 26.4425 49.8735 26.382C49.9047 26.38 49.936 26.3878 49.9819 26.3932C49.9872 26.4518 49.997 26.506 49.997 26.5602C49.997 31.6208 50.0058 36.6813 49.9926 41.7419C49.9877 43.6226 49.3877 45.3173 48.2247 46.7972C46.9558 48.4123 45.2997 49.4195 43.2911 49.8403C42.7672 49.9502 42.234 49.9985 41.6974 49.9985C36.6613 49.9976 31.6251 49.9981 26.5889 49.9985C26.5323 49.9985 26.4761 49.9985 26.4019 49.9985L26.4014 49.9976Z" fill="#EDB22E"/>
<path d="M49.9976 23.6146C49.4752 23.598 48.9806 23.5936 48.4875 23.5639C47.9851 23.5336 47.4847 23.4711 46.9823 23.4384C46.8246 23.4281 46.7806 23.3368 46.7367 23.2187C46.3915 22.292 45.8408 21.5084 45.0806 20.8771C44.2345 20.174 43.2668 19.7507 42.1697 19.6247C40.851 19.4734 39.6372 19.7634 38.5196 20.4723C38.4786 20.4982 38.4361 20.5221 38.3766 20.5578C34.7983 18.5028 31.9206 15.7183 29.7753 12.185C27.1251 7.82109 26.362 3.31221 26.4011 0.0146499C26.4704 0.0102557 26.5407 0.0024439 26.611 0.0024439C31.6228 0.00195566 36.6345 -0.00487967 41.6463 0.00488509C43.9401 0.00927924 45.9164 0.830008 47.5491 2.43875C48.7438 3.61638 49.5065 5.04546 49.8302 6.69082C49.9371 7.23423 49.9893 7.79717 49.9903 8.35083C50.002 13.3626 49.9971 18.3744 49.9971 23.3861V23.6141L49.9976 23.6146ZM40.6029 11.3569C40.394 11.3706 40.0117 11.3769 39.6338 11.4238C38.3087 11.5874 37.2263 12.8421 37.2912 14.2419C37.3337 15.1579 37.7155 15.876 38.444 16.417C38.9434 16.7881 39.5112 16.9526 40.1308 16.9429C40.7558 16.9336 41.3792 16.9077 41.9993 17.0351C43.0349 17.2475 44.0216 17.5473 44.8282 18.2875C45.2539 18.678 45.7939 18.8563 46.3642 18.8895C47.2293 18.9402 47.967 18.6448 48.5749 18.0155C49.5904 16.9643 49.61 15.1832 48.467 14.0925C47.9124 13.5633 47.285 13.1292 46.6024 12.7767C44.7749 11.8325 42.8298 11.3721 40.6029 11.3569Z" fill="#2EB57D"/>
<path d="M11.6361 20.5543C8.30824 18.3495 4.292 20.134 3.19834 23.3861C2.16035 23.5585 1.10038 23.5897 0.0208879 23.6107C0.0145408 23.5487 0.00282306 23.4867 0.00282306 23.4252C0.00233482 18.3641 -0.00547699 13.3035 0.00721721 8.24244C0.0120996 6.3349 0.637045 4.62753 1.82688 3.13889C3.08654 1.56237 4.72067 0.571732 6.69462 0.167959C7.23168 0.0581056 7.79022 0.0102583 8.339 0.00879354C13.3513 -0.00243595 18.363 0.00244644 23.3753 0.0019582C23.4471 0.0019582 23.5188 0.0019582 23.6077 0.0019582C23.5984 3.80338 22.7557 7.3851 21.0229 10.7471C18.8615 14.9416 15.7095 18.1942 11.6356 20.5539L11.6361 20.5543ZM9.32134 11.8574C8.75059 11.9116 8.14273 11.9452 7.5422 12.0312C6.60088 12.1659 5.68396 12.41 4.79488 12.7523C3.60944 13.2093 2.51139 13.8137 1.59253 14.7048C0.806952 15.4664 0.519867 16.3877 0.785469 17.4604C1.27322 19.429 3.77007 20.2106 5.28068 18.8567C5.75671 18.43 6.28987 18.1259 6.88503 17.914C7.42014 17.7235 7.96355 17.5697 8.53332 17.5278C8.87948 17.5024 9.23053 17.4296 9.57083 17.4628C11.0717 17.6103 12.5374 16.6035 12.698 14.9093C12.8279 13.5398 11.8494 12.2187 10.496 11.9692C10.1225 11.9003 9.73781 11.8945 9.32036 11.8564L9.32134 11.8574Z" fill="#36C4F0"/>
<path d="M24.9743 30.4924C24.3582 30.4514 23.7381 30.4412 23.1273 30.3611C22.58 30.2893 22.0385 30.159 21.5024 30.0227C19.9318 29.6238 18.5008 28.9266 17.2006 27.9614C16.6772 27.5728 16.499 27.0337 16.6113 26.4151C16.7509 25.6447 17.6122 25.1438 18.3777 25.322C18.6326 25.3815 18.8469 25.4885 19.0495 25.6369C19.8678 26.2379 20.7657 26.6807 21.7275 27.002C22.266 27.1817 22.8139 27.3111 23.3758 27.3906C24.2395 27.5132 25.1042 27.5332 25.9718 27.4522C27.8207 27.2793 29.5135 26.6778 31.0167 25.5827C31.752 25.0471 32.7749 25.2673 33.1987 25.9865C33.579 26.6319 33.4404 27.5059 32.7856 27.9731C32.2095 28.3842 31.61 28.7553 30.9767 29.0716C29.8889 29.6155 28.745 29.993 27.5527 30.2258C26.7017 30.3923 25.8424 30.4739 24.9738 30.4929L24.9743 30.4924Z" fill="#3E103E"/>
<path d="M8.43876 29.0219C6.32908 29.0521 4.51283 27.1817 4.58509 25.0476C4.62122 23.9813 5.02451 23.0927 5.76663 22.3559C6.52486 21.6031 7.46423 21.2208 8.52518 21.2569C10.8043 21.335 12.3847 23.0688 12.3495 25.2043C12.3124 27.4566 10.4898 29.0438 8.43876 29.0219ZM9.95376 24.9988C10.6549 25.0276 11.3692 24.4969 11.3784 23.6405C11.3872 22.8349 10.8384 22.2256 9.93472 22.229C9.26193 22.2314 8.63454 22.8007 8.61208 23.5868C8.58962 24.3787 9.29171 25.011 9.95376 24.9988Z" fill="#3E103E"/>
<path d="M41.4867 29.0219C39.3531 29.0521 37.5554 27.1377 37.6369 25.01C37.7151 22.9814 39.3887 21.2047 41.5746 21.2589C43.8273 21.315 45.4478 23.0292 45.4004 25.2531C45.354 27.4253 43.571 29.0468 41.4867 29.0223V29.0219ZM43.0105 24.9988C43.7136 25.0242 44.4347 24.491 44.4288 23.6322C44.423 22.7958 43.8771 22.2266 42.9827 22.2295C42.3172 22.2319 41.6844 22.7973 41.6639 23.5912C41.6434 24.3821 42.348 25.0139 43.0105 24.9988Z" fill="#3E103E"/>
<path d="M25.0071 35.4705C24.1839 35.4944 23.3812 35.3509 22.58 35.1985C22.3198 35.1492 22.0591 35.0853 21.8111 34.9945C21.2672 34.7958 20.8741 34.4222 20.7687 33.8447C20.6369 33.1211 21.0143 32.3653 21.8277 32.1344C22.1147 32.0528 22.4018 32.0577 22.6875 32.1461C23.33 32.3443 23.9842 32.4473 24.6585 32.4791C25.5622 32.5215 26.4391 32.4112 27.2994 32.1495C28.1191 31.9005 29.0389 32.3297 29.2318 33.2998C29.3207 33.7475 29.2103 34.1718 28.8783 34.5365C28.5683 34.8768 28.1792 35.012 27.7568 35.1058C27.1836 35.2332 26.6148 35.3802 26.0231 35.4036C25.6838 35.4168 25.3454 35.448 25.0071 35.4715V35.4705Z" fill="#E8E8E8"/>
<path d="M40.6028 11.3569C42.8302 11.372 44.7748 11.8324 46.6023 12.7767C47.2844 13.1292 47.9118 13.5633 48.4669 14.0925C49.6098 15.1827 49.5898 16.9638 48.5748 18.0155C47.9669 18.6448 47.2292 18.9402 46.364 18.8894C45.7938 18.8558 45.2538 18.678 44.828 18.2874C44.022 17.5478 43.0347 17.2475 41.9992 17.0351C41.3791 16.9077 40.7556 16.9336 40.1307 16.9428C39.5111 16.9521 38.9433 16.7876 38.4438 16.417C37.7154 15.876 37.3336 15.1578 37.2911 14.2419C37.2262 12.8421 38.3086 11.5874 39.6337 11.4238C40.0111 11.3774 40.3939 11.3706 40.6028 11.3569Z" fill="#3E103E"/>
<path d="M9.32084 11.8574C9.73829 11.8954 10.123 11.9013 10.4965 11.9701C11.8499 12.2196 12.8283 13.5413 12.6985 14.9103C12.5378 16.604 11.0722 17.6112 9.57131 17.4638C9.23101 17.4301 8.87996 17.5033 8.5338 17.5287C7.96403 17.5707 7.42013 17.7245 6.88551 17.9149C6.29083 18.1268 5.75768 18.431 5.28116 18.8577C3.77055 20.2116 1.2737 19.4299 0.785948 17.4614C0.520346 16.3882 0.80743 15.4674 1.59301 14.7057C2.51138 13.8147 3.60943 13.2103 4.79536 12.7533C5.68395 12.4105 6.60087 12.1669 7.54268 12.0322C8.14321 11.9462 8.75058 11.9125 9.32182 11.8583L9.32084 11.8574Z" fill="#3E103E"/>
<path d="M9.95378 24.9988C9.29172 25.0115 8.58964 24.3792 8.6121 23.5868C8.63456 22.8002 9.26194 22.2314 9.93473 22.229C10.8385 22.2256 11.3872 22.8349 11.3785 23.6405C11.3692 24.4969 10.6549 25.0276 9.95378 24.9988Z" fill="white"/>
<path d="M43.0108 24.9988C42.3487 25.0139 41.6442 24.3821 41.6642 23.5912C41.6847 22.7978 42.3175 22.2319 42.983 22.2295C43.8774 22.2265 44.4233 22.7958 44.4291 23.6322C44.435 24.491 43.7139 25.0242 43.0108 24.9988Z" fill="white"/>
</g>
<defs>
<clipPath id="clip0_4_32">
<rect width="50" height="49.9995" rx="12" fill="white"/>
</clipPath>
</defs>
</svg>
