<svg width="18" height="18" viewBox="0 0 18 18" fill="none" xmlns="http://www.w3.org/2000/svg">
<path fill-rule="evenodd" clip-rule="evenodd" d="M8.76605 3.4902C8.78112 3.40274 8.77881 3.31316 8.75926 3.2266C8.73972 3.14003 8.70331 3.05815 8.65212 2.98565C8.60093 2.91315 8.53597 2.85145 8.46093 2.80406C8.38589 2.75666 8.30226 2.72452 8.2148 2.70945C8.12734 2.69438 8.03777 2.69668 7.9512 2.71623C7.86463 2.73578 7.78276 2.77219 7.71026 2.82337C7.63776 2.87456 7.57605 2.93953 7.52866 3.01456C7.48127 3.0896 7.44912 3.17324 7.43405 3.2607L6.91205 6.3H3.37505C3.19603 6.3 3.02434 6.37111 2.89775 6.4977C2.77116 6.62429 2.70005 6.79598 2.70005 6.975C2.70005 7.15402 2.77116 7.32571 2.89775 7.45229C3.02434 7.57888 3.19603 7.65 3.37505 7.65H6.67805L5.82485 12.6H2.47505C2.29603 12.6 2.12434 12.6711 1.99775 12.7977C1.87116 12.9243 1.80005 13.096 1.80005 13.275C1.80005 13.454 1.87116 13.6257 1.99775 13.7523C2.12434 13.8789 2.29603 13.95 2.47505 13.95H5.59175L5.18495 16.3107C5.15739 16.4858 5.19984 16.6648 5.30314 16.8089C5.40643 16.953 5.56227 17.0507 5.73698 17.0808C5.91169 17.1109 6.09125 17.0711 6.23686 16.97C6.38246 16.8688 6.48243 16.7144 6.51515 16.5402L6.96155 13.95H9.86675L9.45995 16.3107C9.43239 16.4858 9.47484 16.6648 9.57814 16.8089C9.68143 16.953 9.83727 17.0507 10.012 17.0808C10.1867 17.1109 10.3663 17.0711 10.5119 16.97C10.6575 16.8688 10.7574 16.7144 10.7901 16.5402L11.2365 13.95H14.625C14.8041 13.95 14.9758 13.8789 15.1023 13.7523C15.2289 13.6257 15.3 13.454 15.3 13.275C15.3 13.096 15.2289 12.9243 15.1023 12.7977C14.9758 12.6711 14.8041 12.6 14.625 12.6H11.4696L12.3228 7.65H15.525C15.7041 7.65 15.8758 7.57888 16.0023 7.45229C16.1289 7.32571 16.2 7.15402 16.2 6.975C16.2 6.79598 16.1289 6.62429 16.0023 6.4977C15.8758 6.37111 15.7041 6.3 15.525 6.3H12.555L13.041 3.4902C13.0715 3.31356 13.0305 3.13207 12.9271 2.98565C12.8237 2.83924 12.6664 2.73988 12.4898 2.70945C12.3132 2.67901 12.1317 2.71999 11.9853 2.82337C11.8388 2.92675 11.7395 3.08406 11.709 3.2607L11.187 6.3H8.28005L8.76425 3.4902H8.76605ZM10.0989 12.6L10.9521 7.65H8.04785L7.19465 12.6H10.0998H10.0989Z" fill="#606060"/>
</svg>
