<svg width="18" height="18" viewBox="0 0 18 18" fill="none" xmlns="http://www.w3.org/2000/svg">
<path fill-rule="evenodd" clip-rule="evenodd" d="M8.98565 3.7584C9.0205 3.52663 8.96357 3.2904 8.82696 3.09996C8.69035 2.90951 8.48483 2.77988 8.25412 2.73861C8.0234 2.69734 7.78569 2.74771 7.59154 2.87899C7.39738 3.01027 7.26209 3.21212 7.21445 3.4416L6.70325 6.3H3.60005C3.36135 6.3 3.13244 6.39482 2.96365 6.5636C2.79487 6.73238 2.70005 6.9613 2.70005 7.2C2.70005 7.43869 2.79487 7.66761 2.96365 7.83639C3.13244 8.00518 3.36135 8.1 3.60005 8.1H6.38195L5.65925 12.15H2.70005C2.46135 12.15 2.23244 12.2448 2.06365 12.4136C1.89487 12.5824 1.80005 12.8113 1.80005 13.05C1.80005 13.2887 1.89487 13.5176 2.06365 13.6864C2.23244 13.8552 2.46135 13.95 2.70005 13.95H5.33705L4.96445 16.0416C4.92959 16.2734 4.98652 16.5096 5.12314 16.7C5.25975 16.8905 5.46526 17.0201 5.69598 17.0614C5.92669 17.1027 6.1644 17.0523 6.35856 16.921C6.55272 16.7897 6.688 16.5879 6.73565 16.3584L7.16585 13.95H9.61295L9.23945 16.0416C9.215 16.1594 9.2144 16.2809 9.2377 16.3989C9.261 16.5169 9.30772 16.629 9.3751 16.7287C9.44247 16.8283 9.52914 16.9134 9.62998 16.979C9.73082 17.0446 9.84379 17.0893 9.9622 17.1105C10.0806 17.1317 10.2021 17.1289 10.3194 17.1023C10.4367 17.0758 10.5475 17.026 10.6452 16.9559C10.743 16.8857 10.8257 16.7967 10.8884 16.6941C10.9512 16.5915 10.9928 16.4773 11.0106 16.3584L11.4408 13.95H14.4C14.6387 13.95 14.8677 13.8552 15.0364 13.6864C15.2052 13.5176 15.3 13.2887 15.3 13.05C15.3 12.8113 15.2052 12.5824 15.0364 12.4136C14.8677 12.2448 14.6387 12.15 14.4 12.15H11.763L12.4857 8.1H15.3C15.5387 8.1 15.7677 8.00518 15.9364 7.83639C16.1052 7.66761 16.2 7.43869 16.2 7.2C16.2 6.9613 16.1052 6.73238 15.9364 6.5636C15.7677 6.39482 15.5387 6.3 15.3 6.3H12.807L13.2606 3.7584C13.2851 3.64062 13.2857 3.51914 13.2624 3.40112C13.2391 3.28311 13.1924 3.17097 13.125 3.07132C13.0576 2.97168 12.971 2.88655 12.8701 2.82097C12.7693 2.75538 12.6563 2.71068 12.5379 2.68951C12.4195 2.66833 12.298 2.6711 12.1807 2.69766C12.0634 2.72422 11.9526 2.77403 11.8548 2.84414C11.7571 2.91426 11.6744 3.00325 11.6117 3.10587C11.5489 3.20849 11.5073 3.32265 11.4894 3.4416L10.9782 6.3H8.53205L8.98565 3.7584ZM9.93425 12.15L10.656 8.1H8.21075L7.48715 12.15H9.93425Z" fill="#1C1C1C"/>
</svg>
