<svg width="20" height="20" viewBox="0 0 20 20" fill="none" xmlns="http://www.w3.org/2000/svg">
<path fill-rule="evenodd" clip-rule="evenodd" d="M16.5301 3.47C16.6705 3.61062 16.7494 3.80125 16.7494 4C16.7494 4.19875 16.6705 4.38937 16.5301 4.53L11.0601 10L16.5301 15.47C16.6626 15.6122 16.7347 15.8002 16.7313 15.9945C16.7278 16.1888 16.6491 16.3742 16.5117 16.5116C16.3743 16.649 16.1889 16.7277 15.9946 16.7312C15.8003 16.7346 15.6123 16.6625 15.4701 16.53L10.0001 11.06L4.53009 16.53C4.38792 16.6625 4.19987 16.7346 4.00557 16.7312C3.81127 16.7277 3.62588 16.649 3.48847 16.5116C3.35106 16.3742 3.27234 16.1888 3.26892 15.9945C3.26549 15.8002 3.33761 15.6122 3.47009 15.47L8.94009 10L3.47009 4.53C3.33761 4.38782 3.26549 4.19977 3.26892 4.00547C3.27234 3.81117 3.35106 3.62579 3.48847 3.48837C3.62588 3.35096 3.81127 3.27225 4.00557 3.26882C4.19987 3.26539 4.38792 3.33752 4.53009 3.47L10.0001 8.94L15.4701 3.47C15.6107 3.32955 15.8013 3.25066 16.0001 3.25066C16.1988 3.25066 16.3895 3.32955 16.5301 3.47Z" fill="black"/>
</svg>
